<svg xmlns="http://www.w3.org/2000/svg" xmlns:xlink="http://www.w3.org/1999/xlink" viewBox="0,0,255.99431,255.99431"
     width="26px" height="26px">
    <g fill="#000000" fill-rule="nonzero" stroke="none" stroke-width="1" stroke-linecap="butt" stroke-linejoin="miter"
       stroke-miterlimit="10" stroke-dasharray="" stroke-dashoffset="0" font-family="none" font-weight="none"
       font-size="none" text-anchor="none" style="mix-blend-mode: normal">
        <g transform="scale(9.84615,9.84615)">
            <path d="M13,1.1875c-6.52344,0 -11.8125,5.28906 -11.8125,11.8125c0,6.52344 5.28906,11.8125 11.8125,11.8125c6.52344,0 11.8125,-5.28906 11.8125,-11.8125c0,-6.52344 -5.28906,-11.8125 -11.8125,-11.8125zM15.46094,19.49609c-0.60937,0.23828 -1.09375,0.42188 -1.45703,0.54688c-0.36328,0.125 -0.78125,0.1875 -1.26172,0.1875c-0.73437,0 -1.30859,-0.17969 -1.71875,-0.53906c-0.40625,-0.35547 -0.60937,-0.8125 -0.60937,-1.36719c0,-0.21484 0.01563,-0.43359 0.04688,-0.65625c0.02734,-0.22656 0.07813,-0.47656 0.14453,-0.76172l0.76172,-2.6875c0.06641,-0.25781 0.125,-0.5 0.17188,-0.73047c0.04688,-0.23047 0.06641,-0.44141 0.06641,-0.63281c0,-0.33984 -0.07031,-0.58203 -0.21094,-0.71484c-0.14453,-0.13672 -0.41406,-0.20312 -0.8125,-0.20312c-0.19531,0 -0.39844,0.03125 -0.60547,0.08984c-0.20703,0.0625 -0.38281,0.12109 -0.53125,0.17578l0.20313,-0.82812c0.49609,-0.20312 0.97266,-0.375 1.42969,-0.51953c0.45313,-0.14453 0.88672,-0.21875 1.28906,-0.21875c0.73047,0 1.29688,0.17969 1.69141,0.53125c0.39453,0.35156 0.59375,0.8125 0.59375,1.375c0,0.11719 -0.01172,0.32422 -0.03906,0.61719c-0.02734,0.29297 -0.07812,0.5625 -0.15234,0.8125l-0.75781,2.67969c-0.0625,0.21484 -0.11719,0.46094 -0.16797,0.73438c-0.04687,0.27344 -0.07031,0.48438 -0.07031,0.625c0,0.35547 0.07813,0.60156 0.23828,0.73047c0.15625,0.12891 0.43359,0.19141 0.82813,0.19141c0.18359,0 0.39063,-0.03125 0.625,-0.09375c0.23047,-0.06641 0.39844,-0.12109 0.50391,-0.17187zM15.32422,8.61719c-0.35156,0.32813 -0.77734,0.49219 -1.27344,0.49219c-0.49609,0 -0.92578,-0.16406 -1.28125,-0.49219c-0.35547,-0.32812 -0.53125,-0.72656 -0.53125,-1.19141c0,-0.46484 0.17969,-0.86719 0.53125,-1.19922c0.35547,-0.33203 0.78516,-0.49609 1.28125,-0.49609c0.49609,0 0.92188,0.16406 1.27344,0.49609c0.35547,0.33203 0.53125,0.73438 0.53125,1.19922c0,0.46484 -0.17578,0.86328 -0.53125,1.19141z"></path>
        </g>
    </g>
</svg>
