<svg xmlns="http://www.w3.org/2000/svg" viewBox="0 0 24 24"><path d="M12 3.189q.142 0 .286.025t.28.08l5.384 2q.464.186.757.597q.293.412.293.926v3.914q0 .212-.144.356t-.357.144t-.356-.144t-.143-.356V6.804q0-.193-.106-.346q-.105-.154-.298-.231l-5.384-2q-.096-.039-.212-.039t-.212.039l-5.384 2q-.193.077-.298.23Q6 6.613 6 6.805V11.1q0 1.442.42 2.798t1.164 2.49t1.742 1.987t2.151 1.33q.202.086.297.278t.025.39q-.082.212-.286.285q-.205.073-.388-.012q-2.806-1.188-4.465-3.85Q5 14.135 5 11.1V6.817q0-.514.293-.926q.292-.412.757-.597l5.385-2q.141-.063.282-.085q.142-.02.283-.02M17 21q-1.671 0-2.835-1.164Q13 18.67 13 17t1.165-2.835T17 13t2.836 1.165T21 17t-1.164 2.836T17 21m0-4q.625 0 1.063-.437T18.5 15.5t-.437-1.062T17 14t-1.062.438T15.5 15.5t.438 1.063T17 17m0 3q.644 0 1.233-.247q.588-.247 1.013-.736q.106-.13.071-.28q-.034-.148-.176-.23q-.495-.263-1.04-.385Q17.555 18 16.996 18q-.56 0-1.1.122q-.542.122-1.036.386q-.143.08-.177.23q-.035.149.07.28q.426.488 1.014.735T17 20"/></svg>
