<svg xmlns="http://www.w3.org/2000/svg" width="25" height="30" viewBox="0 0 25 30"><path d="M7,10V21.805A1.943,1.943,0,0,0,8.948,23.75H9.5v4.427A1.882,1.882,0,0,0,11.388,30a1.858,1.858,0,0,0,1.862-1.824V23.75h2.5v4.427A1.882,1.882,0,0,0,17.639,30,1.857,1.857,0,0,0,19.5,28.176V23.75h.555A1.946,1.946,0,0,0,22,21.8V10H7Zm20,1.839a1.875,1.875,0,0,0-3.75,0v7.632a1.878,1.878,0,0,0,3.75,0V11.839Zm-21.25,0a1.875,1.875,0,0,0-3.75,0v7.632A1.829,1.829,0,0,0,3.875,21.25,1.829,1.829,0,0,0,5.75,19.472V11.839ZM18.189,2.7,19.364.375A.253.253,0,0,0,19.16,0a.231.231,0,0,0-.2.131L17.769,2.479a7.715,7.715,0,0,0-6.536,0L10.045.131A.229.229,0,0,0,9.84,0a.253.253,0,0,0-.2.375L10.811,2.7A6.681,6.681,0,0,0,7,8.749H22A6.681,6.681,0,0,0,18.189,2.7ZM11.376,6.25A.625.625,0,1,1,12,5.625.626.626,0,0,1,11.376,6.25Zm6.248,0a.625.625,0,1,1,.626-.625A.624.624,0,0,1,17.624,6.25Z" transform="translate(-2)" fill="#0a0c2e" /></svg>
