<svg xmlns="http://www.w3.org/2000/svg" viewBox="0 0 24 24">
    <g fill="none" stroke="currentColor" stroke-linecap="round" stroke-width="1.5">
        <path stroke-linejoin="round" d="M14.186 2.753v3.596c0 .487.194.955.54 1.3a1.85 1.85 0 0 0 1.306.539h4.125"/>
        <path stroke-linejoin="round"
              d="M20.25 8.568v8.568a4.25 4.25 0 0 1-1.362 2.97a4.28 4.28 0 0 1-3.072 1.14h-7.59a4.3 4.3 0 0 1-3.1-1.124a4.26 4.26 0 0 1-1.376-2.986V6.862a4.25 4.25 0 0 1 1.362-2.97a4.28 4.28 0 0 1 3.072-1.14h5.714a3.5 3.5 0 0 1 2.361.905l2.96 2.722a2.97 2.97 0 0 1 1.031 2.189"/>
        <path stroke-miterlimit="10" d="m14.51 11.513l-5.03 5.032m-.001-5.021l5.032 5.032"/>
    </g>
</svg>
