<svg width="96" height="96" viewBox="0 0 96 96" fill="none" xmlns="http://www.w3.org/2000/svg">
<path fill-rule="evenodd" clip-rule="evenodd" d="M38.9184 15.9707C43.2863 9.58006 52.7135 9.58008 57.0814 15.9707L58.8091 18.4985C69.6333 34.3354 78.9331 51.1618 86.584 68.7525L86.9449 69.5822C89.6411 75.7812 85.5676 82.8201 78.8495 83.571C58.3469 85.8624 37.6529 85.8624 17.1504 83.571C10.4322 82.8201 6.35875 75.7813 9.05497 69.5822L9.41583 68.7526C17.0667 51.1619 26.3666 34.3354 37.1908 18.4985L38.9184 15.9707ZM52 36.0002C52 38.2093 50.2091 40.0002 48 40.0002C45.7909 40.0002 44 38.2093 44 36.0002C44 33.7911 45.7909 32.0002 48 32.0002C50.2091 32.0002 52 33.7911 52 36.0002ZM48 47.0002C49.6569 47.0002 51 48.3433 51 50.0002V70.0002C51 71.6571 49.6569 73.0002 48 73.0002C46.3431 73.0002 45 71.6571 45 70.0002V50.0002C45 48.3433 46.3431 47.0002 48 47.0002Z" fill="#8AB742"/>
</svg>
