<svg xmlns="http://www.w3.org/2000/svg" width="24.234" height="29.08" viewBox="0 0 24.234 29.08"><path d="M26.234,21.334c-.952,2.763-3.8,7.654-6.741,7.708-1.948.038-2.575-1.155-4.8-1.155s-2.923,1.118-4.764,1.191C6.81,29.2,2,22.018,2,15.756,2,10,6.008,7.153,9.51,7.1c1.878-.034,3.652,1.266,4.8,1.266s3.3-1.563,5.569-1.334a6.8,6.8,0,0,1,5.318,2.88c-4.533,2.959-3.827,9.147,1.04,11.421ZM19.907,0a6.435,6.435,0,0,0-5.828,6.7C17.243,6.948,20.28,3.4,19.907,0Z" transform="translate(-2)" fill="#0a0c2e"/></svg>
