<svg xmlns="http://www.w3.org/2000/svg" viewBox="0 0 24 24"><path d="M7 21V3zm5.588-14.913q.22-.22.22-.549t-.22-.549t-.55-.22t-.548.22t-.22.55t.22.548t.549.22t.549-.22M7.616 22q-.672 0-1.144-.472T6 20.385V3.615q0-.69.463-1.152T7.616 2h8.846q.67 0 1.143.472q.472.472.472 1.144V6.83q.373.04.648.31q.275.269.275.648v1.769q0 .379-.275.648t-.648.31v2.118q0 .214-.143.357t-.357.143t-.357-.143t-.143-.357V3.616q0-.27-.173-.443T16.462 3H7.616q-.27 0-.443.173T7 3.616v16.769q0 .269.173.442t.443.173h1.961q.214 0 .357.143t.143.357t-.143.357t-.357.143zm6.248-3.5l1.84 1.84q.14.14.14.342t-.14.347q-.146.165-.357.155q-.21-.009-.356-.155l-1.964-1.964q-.242-.242-.242-.565t.242-.565l1.97-1.97q.145-.146.353-.153t.354.16q.14.145.134.353t-.153.354zm6.734 0l-1.84-1.84q-.14-.14-.14-.342t.14-.347q.146-.165.357-.155q.21.009.356.155l1.964 1.964q.242.242.242.565t-.242.566l-1.97 1.969q-.146.146-.353.153t-.354-.16q-.14-.145-.134-.353t.153-.354z"/></svg>