<svg xmlns="http://www.w3.org/2000/svg" viewBox="0 0 24 24"><g fill-rule="evenodd"><path d="m12.594 23.258l-.012.002l-.071.035l-.02.004l-.014-.004l-.071-.036q-.016-.004-.024.006l-.004.01l-.017.428l.005.02l.01.013l.104.074l.015.004l.012-.004l.104-.074l.012-.016l.004-.017l-.017-.427q-.004-.016-.016-.018m.264-.113l-.014.002l-.184.093l-.01.01l-.003.011l.018.43l.005.012l.008.008l.201.092q.019.005.029-.008l.004-.014l-.034-.614q-.005-.019-.02-.022m-.715.002a.02.02 0 0 0-.027.006l-.006.014l-.034.614q.001.018.017.024l.015-.002l.201-.093l.01-.008l.003-.011l.018-.43l-.003-.012l-.01-.01z"/><path d="M19.264 3.364a1 1 0 0 1 1.221.15l.008.008a1 1 0 0 1 .148 1.225l-1.068 1.761a1 1 0 0 1-1.114.447l-3.63 3.63l.414.415c.951.951.925 2.489-.01 3.423a2.38 2.38 0 0 1-1.679.698a.37.37 0 0 0-.33.205l-.891 1.78a3 3 0 0 1-.562.78l-3.306 3.306a3 3 0 0 1-4.243 0l-1.414-1.414a3 3 0 0 1 0-4.243l3.306-3.306a3 3 0 0 1 .78-.562l1.78-.89a.37.37 0 0 0 .205-.331c0-.633.256-1.238.698-1.68c.934-.934 2.472-.96 3.423-.009l.414.414l3.63-3.63a1 1 0 0 1 .452-1.116zM9.172 14.828a1 1 0 0 1 0 1.414L7.05 18.364a1 1 0 0 1-1.415-1.415l2.122-2.12a1 1 0 0 1 1.414 0"/></g></svg>
