<svg width="22" height="27" viewBox="0 0 22 27" xmlns="http://www.w3.org/2000/svg">
    <path d="M9.26667 18.0667L16.8 10.5333L14.9 8.63333L9.26667 14.2667L6.46667 11.4667L4.56667 13.3667L9.26667 18.0667ZM10.6667 26.6667C7.57778 25.8889 5.02778 24.1167 3.01667 21.35C1.00556 18.5833 0 15.5111 0 12.1333V4L10.6667 0L21.3333 4V12.1333C21.3333 15.5111 20.3278 18.5833 18.3167 21.35C16.3056 24.1167 13.7556 25.8889 10.6667 26.6667ZM10.6667 23.8667C12.9778 23.1333 14.8889 21.6667 16.4 19.4667C17.9111 17.2667 18.6667 14.8222 18.6667 12.1333V5.83333L10.6667 2.83333L2.66667 5.83333V12.1333C2.66667 14.8222 3.42222 17.2667 4.93333 19.4667C6.44444 21.6667 8.35556 23.1333 10.6667 23.8667Z"/>
</svg>
