<svg width="32" height="32" viewBox="0 0 32 32" xmlns="http://www.w3.org/2000/svg">
    <path d="M13.2007 20.667L16.0007 17.867L18.8007 20.667L20.6673 18.8003L17.8673 16.0003L20.6673 13.2003L18.8007 11.3337L16.0007 14.1337L13.2007 11.3337L11.334 13.2003L14.134 16.0003L11.334 18.8003L13.2007 20.667ZM16.0007 29.3337C12.9118 28.5559 10.3618 26.7837 8.35065 24.017C6.33954 21.2503 5.33398 18.1781 5.33398 14.8003V6.66699L16.0007 2.66699L26.6673 6.66699V14.8003C26.6673 18.1781 25.6618 21.2503 23.6507 24.017C21.6395 26.7837 19.0895 28.5559 16.0007 29.3337ZM16.0007 26.5337C18.3118 25.8003 20.2229 24.3337 21.734 22.1337C23.2451 19.9337 24.0007 17.4892 24.0007 14.8003V8.50033L16.0007 5.50033L8.00065 8.50033V14.8003C8.00065 17.4892 8.75621 19.9337 10.2673 22.1337C11.7784 24.3337 13.6895 25.8003 16.0007 26.5337Z"/>
</svg>
